<svg>
  <defs>
    <svg id="login" viewBox="0 0 24 24">
      <path d="M810.667 832h-597.333c-47.36 0-85.333-37.973-85.333-85.333v-170.667h85.333v170.667h597.333v-597.333h-597.333v170.667h-85.333v-170.667c0-47.128 38.205-85.333 85.333-85.333v0h597.333c47.128 0 85.333 38.205 85.333 85.333v0 597.333c0 47.128-38.205 85.333-85.333 85.333v0zM430.080 295.253l60.587-60.587 213.333 213.333-213.333 213.333-60.587-60.16 110.507-110.507h-412.587v-85.333h412.587l-110.507-110.080z" />
    </svg>
    <svg id="user" viewBox="0 0 24 24">
      <path d="M870.286 194.857q-12.571 88.571-50 147.143t-105.429 67.714q-38.286-42.286-91.143-66t-111.714-23.714-111.714 23.714-91.143 66q-68-9.143-105.429-67.714t-50-147.143q60.571-85.714 154.857-135.714t203.429-50 203.429 50 154.857 135.714zM731.429 594.286q0 90.857-64.286 155.143t-155.143 64.286-155.143-64.286-64.286-155.143 64.286-155.143 155.143-64.286 155.143 64.286 64.286 155.143zM1024 448q0-104-40.571-198.571t-108.857-163.429-163.143-109.429-199.429-40.571q-104 0-198.857 40.571t-163.429 109.143-109.143 163.429-40.571 198.857 40.571 198.857 109.143 163.429 163.429 109.143 198.857 40.571 198.857-40.571 163.429-109.143 109.143-163.429 40.571-198.857z" />
    </svg>
    <svg id="dashboard" viewBox="0 0 24 24">
      <path d="M128 618.668v-213.335h341.332v426.668h-341.332v-213.332zM554.668 704v-128h341.332v256h-341.332v-128zM554.668 277.332v-213.332h341.332v426.668h-341.332v-213.335zM128 192v-128h341.332v256h-341.332v-128z" />
    </svg>
    <svg id="list" viewBox="0 0 24 24">
      <path d="M160 224h-128c-17.673 0-32-14.327-32-32v0-128c0-17.673 14.327-32 32-32v0h128c17.673 0 32 14.327 32 32v0 128c0 17.673-14.327 32-32 32v0zM160 864h-128c-17.673 0-32-14.327-32-32v0-128c0-17.673 14.327-32 32-32v0h128c17.673 0 32 14.327 32 32v0 128c0 17.673-14.327 32-32 32v0zM160 544h-128c-17.673 0-32-14.327-32-32v0-128c0-17.673 14.327-32 32-32v0h128c17.673 0 32 14.327 32 32v0 128c0 17.673-14.327 32-32 32v0zM992 192h-640c-17.673 0-32-14.327-32-32v0-64c0-17.673 14.327-32 32-32v0h640c17.673 0 32 14.327 32 32v0 64c0 17.673-14.327 32-32 32v0zM992 832h-640c-17.673 0-32-14.327-32-32v0-64c0-17.673 14.327-32 32-32v0h640c17.673 0 32 14.327 32 32v0 64c0 17.673-14.327 32-32 32v0zM992 512h-640c-17.673 0-32-14.327-32-32v0-64c0-17.673 14.327-32 32-32v0h640c17.673 0 32 14.327 32 32v0 64c0 17.673-14.327 32-32 32v0z" />
    </svg>
    <svg id="archive" viewBox="0 0 24 24">
      <path d="M926.123 734.208l-127.957 127.957c-7.696 7.723-18.342 12.501-30.104 12.501-0.022 0-0.043 0-0.065 0h-511.997c-0.013 0-0.028 0-0.044 0-11.768 0-22.419-4.778-30.12-12.5l-127.958-127.958c-7.748-7.7-12.544-18.363-12.544-30.146 0-0.022 0-0.043 0-0.065v0.003-554.667c0-47.061 38.272-85.333 85.333-85.333h682.667c47.061 0 85.333 38.272 85.333 85.333v554.667c0 0.029 0 0.063 0 0.097 0 11.772-4.796 22.424-12.541 30.108l-0.003 0.003zM273.664 789.333h476.672l42.667-42.667h-562.005l42.667 42.667zM512 192l-213.333 213.333h128v128h170.667v-128h128l-213.333-213.333z" />
    </svg>
  </defs>
</svg>
